<svg width="203" height="118" viewBox="0 0 203 118" fill="none" xmlns="http://www.w3.org/2000/svg">
<path d="M48.83 97.7133V112.113H46.19V97.7133H48.83ZM55.07 103.449C55.07 102.281 54.798 101.385 54.254 100.761C53.71 100.137 52.942 99.8253 51.95 99.8253C50.958 99.8253 50.19 100.145 49.646 100.785C49.102 101.409 48.83 102.297 48.83 103.449H47.39V98.9133H49.166C49.486 98.4013 49.958 98.0093 50.582 97.7373C51.222 97.4653 51.958 97.3293 52.79 97.3293C53.766 97.3293 54.622 97.5533 55.358 98.0013C56.11 98.4493 56.686 99.0813 57.086 99.8973C57.502 100.713 57.71 101.657 57.71 102.729V112.113H55.07V103.449ZM63.95 103.449C63.95 102.281 63.678 101.385 63.134 100.761C62.59 100.137 61.822 99.8253 60.83 99.8253C59.838 99.8253 59.07 100.145 58.526 100.785C57.982 101.409 57.71 102.297 57.71 103.449H56.27V99.1533H57.422C57.79 98.5933 58.318 98.1533 59.006 97.8333C59.694 97.4973 60.462 97.3293 61.31 97.3293C62.35 97.3293 63.27 97.5533 64.07 98.0013C64.87 98.4493 65.486 99.0813 65.918 99.8973C66.366 100.713 66.59 101.657 66.59 102.729V112.113H63.95V103.449ZM71.9235 97.7133L76.4835 110.913H73.6515L69.0435 97.7133H71.9235ZM77.2995 114.273C77.0435 114.945 76.7235 115.505 76.3395 115.953C75.9715 116.401 75.5315 116.737 75.0195 116.961C74.5235 117.185 73.9635 117.297 73.3395 117.297C72.5235 117.297 71.8195 117.145 71.2275 116.841C70.6355 116.537 70.1635 116.089 69.8115 115.497C69.4755 114.905 69.2755 114.193 69.2115 113.361H71.6595C71.8515 113.889 72.0675 114.273 72.3075 114.513C72.5635 114.769 72.8915 114.897 73.2915 114.897C73.7075 114.897 74.0435 114.777 74.2995 114.537C74.5555 114.313 74.7795 113.937 74.9715 113.409L79.9635 97.7133H82.6275L77.2995 114.273ZM104.946 111.153C104.946 112.369 104.65 113.441 104.058 114.369C103.482 115.297 102.658 116.017 101.586 116.529C100.514 117.041 99.2818 117.297 97.8898 117.297C96.6578 117.297 95.5458 117.097 94.5538 116.697C93.5778 116.313 92.7858 115.761 92.1778 115.041C91.5858 114.337 91.2338 113.521 91.1218 112.593H93.7138C94.0338 113.297 94.5618 113.849 95.2978 114.249C96.0338 114.649 96.8978 114.849 97.8898 114.849C99.2498 114.849 100.322 114.513 101.106 113.841C101.906 113.185 102.306 112.289 102.306 111.153V109.617H101.97C101.618 110.161 101.042 110.601 100.242 110.937C99.4578 111.273 98.5938 111.441 97.6498 111.441C96.3538 111.441 95.2098 111.153 94.2178 110.577C93.2418 109.985 92.4818 109.161 91.9378 108.105C91.3938 107.049 91.1218 105.825 91.1218 104.433C91.1218 103.025 91.3938 101.785 91.9378 100.713C92.4818 99.6413 93.2418 98.8093 94.2178 98.2173C95.2098 97.6253 96.3538 97.3293 97.6498 97.3293C98.5938 97.3293 99.4578 97.5053 100.242 97.8573C101.042 98.2093 101.618 98.6733 101.97 99.2493H102.306V97.7133H104.946V111.153ZM93.8098 104.433C93.8098 105.857 94.1938 106.985 94.9618 107.817C95.7298 108.633 96.7858 109.041 98.1298 109.041C99.4738 109.041 100.53 108.633 101.298 107.817C102.066 106.985 102.45 105.857 102.45 104.433C102.45 103.009 102.066 101.889 101.298 101.073C100.53 100.241 99.4738 99.8253 98.1298 99.8253C96.7858 99.8253 95.7298 100.241 94.9618 101.073C94.1938 101.889 93.8098 103.009 93.8098 104.433ZM112.205 97.7133V112.113H109.565V97.7133H112.205ZM110.885 95.5053C110.277 95.5053 109.789 95.3373 109.421 95.0013C109.053 94.6493 108.869 94.1933 108.869 93.6333C108.869 93.0733 109.053 92.6253 109.421 92.2893C109.789 91.9373 110.277 91.7613 110.885 91.7613C111.493 91.7613 111.981 91.9373 112.349 92.2893C112.717 92.6253 112.901 93.0733 112.901 93.6333C112.901 94.1933 112.717 94.6493 112.349 95.0013C111.981 95.3373 111.493 95.5053 110.885 95.5053ZM122.711 112.497C121.255 112.497 120.127 112.033 119.327 111.105C118.543 110.161 118.151 108.817 118.151 107.073V100.209H115.271V97.7133H118.151V93.9693H120.791V97.7133H126.791V100.209H120.791V107.073C120.791 108.049 120.959 108.785 121.295 109.281C121.647 109.761 122.151 110.001 122.807 110.001C123.527 110.001 124.103 109.761 124.535 109.281C124.967 108.801 125.271 108.065 125.447 107.073H127.799C127.735 108.817 127.263 110.161 126.383 111.105C125.503 112.033 124.279 112.497 122.711 112.497ZM133.51 91.7613V112.113H130.87V91.7613H133.51ZM140.47 103.809C140.47 102.529 140.166 101.545 139.558 100.857C138.966 100.169 138.11 99.8253 136.99 99.8253C135.87 99.8253 135.006 100.169 134.398 100.857C133.806 101.545 133.51 102.529 133.51 103.809H132.79V98.9133H133.846C134.278 98.4013 134.838 98.0093 135.526 97.7373C136.23 97.4653 136.998 97.3293 137.83 97.3293C138.87 97.3293 139.79 97.5693 140.59 98.0493C141.39 98.5293 142.006 99.2093 142.438 100.089C142.886 100.953 143.11 101.953 143.11 103.089V112.113H140.47V103.809ZM156.847 112.113V97.7133H159.487V112.113H156.847ZM149.887 106.017C149.887 107.297 150.183 108.281 150.775 108.969C151.383 109.657 152.247 110.001 153.367 110.001C154.487 110.001 155.343 109.657 155.935 108.969C156.543 108.281 156.847 107.297 156.847 106.017H157.567V110.913H156.511C156.079 111.425 155.511 111.817 154.807 112.089C154.119 112.361 153.359 112.497 152.527 112.497C151.487 112.497 150.567 112.257 149.767 111.777C148.967 111.297 148.343 110.625 147.895 109.761C147.463 108.881 147.247 107.873 147.247 106.737V97.7133H149.887V106.017ZM171.592 112.497C170.648 112.497 169.784 112.329 169 111.993C168.216 111.657 167.576 111.185 167.08 110.577H166.744V112.113H164.104V91.7613H166.744V99.2493H167.08C167.576 98.6413 168.216 98.1693 169 97.8333C169.784 97.4973 170.648 97.3293 171.592 97.3293C172.904 97.3293 174.056 97.6493 175.048 98.2893C176.056 98.9133 176.832 99.8013 177.376 100.953C177.936 102.089 178.216 103.409 178.216 104.913C178.216 106.417 177.936 107.745 177.376 108.897C176.832 110.033 176.056 110.921 175.048 111.561C174.056 112.185 172.904 112.497 171.592 112.497ZM166.648 104.913C166.648 106.481 167.048 107.721 167.848 108.633C168.648 109.545 169.736 110.001 171.112 110.001C172.488 110.001 173.576 109.545 174.376 108.633C175.176 107.721 175.576 106.481 175.576 104.913C175.576 103.345 175.176 102.105 174.376 101.193C173.576 100.281 172.488 99.8253 171.112 99.8253C169.736 99.8253 168.648 100.281 167.848 101.193C167.048 102.105 166.648 103.345 166.648 104.913Z" fill="black"/>
<path d="M80.8363 41.8448C81.1471 41.2284 81.8986 40.9802 82.515 41.2911C83.1313 41.6019 83.3784 42.3534 83.0677 42.9698L79.2962 50.4453C86.5392 48.5772 96.4005 47.8649 105.334 51.1338C110.432 52.9991 115.228 56.163 119.031 61.1368C122.831 66.107 125.591 72.8219 126.721 81.7207C126.808 82.4055 126.323 83.0313 125.638 83.1182C124.953 83.205 124.327 82.72 124.241 82.0352C123.156 73.4891 120.529 67.2123 117.045 62.6553C113.564 58.1019 109.179 55.2025 104.476 53.4815C96.295 50.488 87.1523 51.0654 80.2972 52.7715L87.4935 56.4024C88.1099 56.7133 88.3581 57.4647 88.0472 58.0811C87.7364 58.6974 86.9848 58.9445 86.3685 58.6338L76.3236 53.5684C75.7073 53.2576 75.4593 52.506 75.7698 51.8897L80.8363 41.8448Z" fill="black"/>
<g clip-path="url(#clip0_103_2)">
<path d="M25.2507 15.3288L27.8398 25.5975C27.8573 25.6667 27.8727 25.7364 27.8847 25.8067C28.0389 26.7139 28.3842 27.5792 28.8986 28.3427C29.4131 29.1062 30.0846 29.7525 30.8681 30.2369C31.7569 30.7862 32.2551 31.792 32.1528 32.8307C32.0502 33.8697 31.3652 34.7596 30.386 35.1252C26.4771 36.5842 23.0901 38.4453 21.025 41.3033C19.0618 44.021 17.9736 48.1019 19.6553 54.7719C20.4184 57.7951 22.3175 60.4085 24.9572 62.0734C25.8436 62.6325 26.3315 63.6488 26.2159 64.6895C25.9675 66.9247 26.4082 69.1657 27.4492 71.1285C27.4542 71.126 27.4599 71.1231 27.4649 71.1206C28.6885 70.5072 30.7747 69.1092 33.6176 65.9598C34.1487 65.3714 34.9103 65.0411 35.7034 65.0554C41.7224 65.1635 47.662 63.67 52.912 60.7282C53.6036 60.3408 54.4295 60.2718 55.1761 60.5387C59.1745 61.9686 61.6759 62.2124 63.0442 62.1739C63.0507 62.1737 63.0572 62.1731 63.0637 62.1729C63.0496 59.9521 62.3714 57.7705 61.0928 55.9194C60.4976 55.0575 60.4471 53.9311 60.9627 53.0195C62.5093 50.2848 62.9357 47.0585 62.1518 44.017L62.148 44.0022C60.4818 37.3937 57.601 34.3347 54.5767 32.8665C51.3912 31.3201 47.5091 31.2631 43.3479 31.7772C42.3172 31.9046 41.3016 31.4403 40.7273 30.5762C40.1531 29.7119 40.1182 28.5969 40.6362 27.6979C41.091 26.9089 41.3746 26.0325 41.4681 25.1269C41.5615 24.2216 41.4632 23.3067 41.1794 22.442C41.1594 22.3811 41.1405 22.319 41.1249 22.2569L38.5357 11.9882C38.1663 10.5227 39.0569 9.03471 40.5243 8.66571C41.9916 8.29696 43.4799 9.18672 43.8494 10.652L45.0179 15.2867C47.0776 14.4205 48.976 14.0006 50.7604 13.9706C53.4747 13.9252 55.6385 14.7817 57.3963 15.831C58.2563 16.3443 59.0282 16.9092 59.701 17.4205C60.417 17.9645 60.9477 18.3887 61.5199 18.7955C62.6491 19.5981 63.2823 19.8285 63.8023 19.8276C65.315 19.8255 66.5436 21.0477 66.5465 22.5584C66.549 24.0696 65.3234 25.2968 63.8102 25.2993C61.5063 25.303 59.6864 24.2095 58.3416 23.2537C57.6769 22.7812 56.9632 22.2174 56.3824 21.7761C55.7587 21.3021 55.1788 20.8847 54.5841 20.5297C53.4319 19.842 52.2708 19.4189 50.8531 19.4426C49.7268 19.4615 48.2731 19.7692 46.3774 20.6783L46.4268 20.8745C46.9165 22.4289 47.0868 24.067 46.9194 25.6889C46.9078 25.8012 46.8907 25.9128 46.8759 26.0246C50.2121 25.9494 53.7255 26.3696 56.9723 27.9458C61.4869 30.1375 65.0335 34.3257 67.0741 41.246L67.4617 42.666C68.4561 46.5365 68.1003 50.6126 66.4814 54.2318C68.2593 57.4558 68.9229 61.1944 68.3373 64.8601C68.209 65.6633 67.7294 66.3686 67.0288 66.7834L65.6314 64.4304C67.028 66.7837 67.026 66.7852 67.0237 66.7866L67.0186 66.7899C67.0155 66.7917 67.0111 66.7927 67.0079 66.7945C67.0014 66.7983 66.9944 66.8036 66.9875 66.8075C66.9735 66.8155 66.9582 66.824 66.9426 66.8326C66.9111 66.8499 66.8764 66.869 66.8384 66.8883C66.7622 66.927 66.6729 66.9689 66.5702 67.0128C66.3639 67.1011 66.1036 67.1956 65.7873 67.2845C65.1533 67.4626 64.3008 67.6133 63.1976 67.6444C61.193 67.7008 58.3708 67.3616 54.5008 66.0916C49.0443 68.9272 42.9979 70.4474 36.8474 70.5307C34.0404 73.4803 31.7146 75.1134 29.9221 76.0118C28.9356 76.5062 28.1135 76.7765 27.4706 76.9195C27.1503 76.9907 26.8774 77.0302 26.654 77.0501C26.5424 77.06 26.4426 77.0657 26.3569 77.0677C26.3142 77.0687 26.2748 77.0682 26.2387 77.0679C26.2207 77.0677 26.2036 77.0675 26.1873 77.067C26.1791 77.0668 26.1709 77.0655 26.1632 77.0652C26.1593 77.0651 26.1553 77.0663 26.1516 77.0662L26.1456 77.0657C26.1431 77.0642 26.1439 77.0089 26.2282 74.9783L26.1414 77.0648C25.3275 77.0309 24.5708 76.6365 24.0768 75.9897C21.8229 73.0385 20.6352 69.4329 20.6719 65.7529C17.5512 63.348 15.3126 59.956 14.3417 56.1081L14.0073 54.6648C12.5127 47.5655 13.6394 42.1734 16.5798 38.1028C18.6887 35.1834 21.5806 33.1675 24.5571 31.6821C24.4894 31.5876 24.4187 31.4952 24.3536 31.3987C23.4359 30.0369 22.812 28.5005 22.5145 26.8874L19.9371 16.665C19.5676 15.1995 20.4582 13.7115 21.9256 13.3425C23.3928 12.974 24.8813 13.8636 25.2507 15.3288Z" fill="black"/>
</g>
<defs>
<clipPath id="clip0_103_2">
<rect width="65.7532" height="65.6753" fill="white" transform="matrix(-0.969809 0.243866 -0.244484 -0.969653 79.8246 63.6823)"/>
</clipPath>
</defs>
</svg>
