<svg width="139" height="88" viewBox="0 0 139 88" fill="none" xmlns="http://www.w3.org/2000/svg">
<path d="M60.5567 3.20279C63.5843 0.475331 67.2167 -0.317883 71.1036 0.108068C74.9434 0.528946 79.0857 2.14042 83.2999 4.26822C87.5248 6.40145 91.9265 9.10917 96.2794 11.7917C100.653 14.4867 104.977 17.1567 109.121 19.276C113.275 21.4002 117.148 22.9184 120.608 23.3698C124.027 23.8159 126.972 23.2148 129.429 21.1764C131.929 19.1024 134.091 15.4029 135.606 9.30045C135.772 8.63084 136.449 8.2224 137.119 8.38834C137.789 8.55459 138.198 9.23295 138.031 9.90299C136.453 16.2635 134.102 20.547 131.025 23.1003C127.904 25.689 124.208 26.3603 120.283 25.8483C116.399 25.3414 112.223 23.6712 107.983 21.5026C103.733 19.3292 99.3194 16.6013 94.9679 13.9196C90.5959 11.2254 86.2863 8.57653 82.1729 6.49967C78.0491 4.4175 74.2251 2.96542 70.8312 2.59342C67.4841 2.22664 64.6137 2.91241 62.2296 5.06022C60.215 6.8752 58.4451 9.82619 57.0958 14.3512L63.9259 10.026C64.5091 9.65663 65.2811 9.83052 65.6505 10.4137C66.0197 10.9969 65.8469 11.769 65.2638 12.1383L55.7599 18.1579C55.1768 18.5272 54.4048 18.3541 54.0353 17.7712L48.0147 8.26725C47.6453 7.68404 47.8192 6.91107 48.4024 6.54166C48.9856 6.17254 49.7577 6.34626 50.127 6.92936L54.5978 13.986C56.0382 8.99929 58.033 5.47638 60.5567 3.20279Z" fill="black"/>
<path d="M14.9701 72.379C15.1963 74.5459 16.2761 76.5355 17.9704 77.908C19.6645 79.2803 21.8351 79.9234 24.0046 79.6978C26.1745 79.4718 28.1669 78.3954 29.5413 76.7034L51.9751 49.085C54.2653 46.2652 55.3389 42.652 54.9619 39.0408C54.5849 35.4297 52.7882 32.1153 49.9648 29.8279C47.1414 27.5407 43.5229 26.467 39.907 26.8432C36.291 27.2197 32.9723 29.0159 30.6818 31.8355L8.24806 59.4539C7.29476 60.6275 5.56817 60.8073 4.39297 59.8553C3.21853 58.9034 3.03903 57.1807 3.99128 56.0073L26.425 28.3888C29.6311 24.4418 34.2771 21.9276 39.3388 21.4006C44.4003 20.8738 49.4642 22.3772 53.4163 25.5788C57.3684 28.7804 59.886 33.4185 60.4138 38.4732C60.9414 43.5279 59.4357 48.5849 56.23 52.5318L33.7962 80.1502C31.5062 82.9694 28.1884 84.7659 24.573 85.1423C20.9579 85.5185 17.3417 84.4438 14.5189 82.1572C11.6959 79.8703 9.89703 76.5569 9.52012 72.9464C9.14345 69.3361 10.2194 65.7248 12.5092 62.9058L12.509 62.9039L34.9694 35.2827L34.9715 35.2844C36.3454 33.5937 38.334 32.5164 40.5025 32.2907C42.6716 32.0649 44.8412 32.7086 46.5348 34.0806C48.2285 35.4526 49.3067 37.4399 49.5329 39.606C49.759 41.7721 49.1143 43.9389 47.7405 45.6302L47.7407 45.6321L27.0119 71.1195C26.0579 72.292 24.3329 72.471 23.1585 71.5188C21.9838 70.5661 21.8045 68.8418 22.7585 67.6687L43.4855 42.1815L43.4876 42.1832C43.9452 41.6192 44.1583 40.8955 44.0829 40.1734C44.0074 39.4509 43.6483 38.7874 43.0834 38.3297C42.5184 37.8721 41.7942 37.658 41.0707 37.7333C40.3472 37.8086 39.6828 38.1673 39.2245 38.7315L39.2247 38.7334L16.7624 66.3548C15.3893 68.0463 14.7442 70.2131 14.9701 72.379Z" fill="black"/>
</svg>
