<svg width="127" height="84" viewBox="0 0 127 84" fill="none" xmlns="http://www.w3.org/2000/svg">
<path d="M80.8363 41.8448C81.1472 41.2284 81.8986 40.9802 82.515 41.2911C83.1314 41.6019 83.3785 42.3534 83.0678 42.9698L79.2963 50.4453C86.5393 48.5772 96.4006 47.8649 105.334 51.1338C110.432 52.9991 115.228 56.163 119.031 61.1368C122.831 66.107 125.591 72.8219 126.721 81.7207C126.808 82.4055 126.323 83.0313 125.638 83.1182C124.953 83.205 124.328 82.72 124.241 82.0352C123.156 73.4891 120.529 67.2123 117.045 62.6553C113.564 58.1019 109.179 55.2025 104.476 53.4815C96.2951 50.488 87.1524 51.0654 80.2972 52.7715L87.4935 56.4024C88.1099 56.7133 88.3581 57.4647 88.0472 58.0811C87.7364 58.6974 86.9849 58.9445 86.3685 58.6338L76.3236 53.5684C75.7073 53.2576 75.4593 52.506 75.7699 51.8897L80.8363 41.8448Z" fill="black"/>
<g clip-path="url(#clip0_24_28)">
<path d="M25.2507 15.3288L27.8398 25.5975C27.8573 25.6667 27.8727 25.7364 27.8847 25.8067C28.0389 26.7139 28.3842 27.5792 28.8986 28.3427C29.4131 29.1062 30.0846 29.7525 30.8681 30.2369C31.7569 30.7862 32.2551 31.792 32.1528 32.8307C32.0502 33.8697 31.3652 34.7596 30.386 35.1252C26.4771 36.5842 23.0901 38.4453 21.025 41.3033C19.0618 44.021 17.9736 48.1019 19.6553 54.7719C20.4184 57.7951 22.3175 60.4085 24.9572 62.0734C25.8436 62.6325 26.3315 63.6488 26.2159 64.6895C25.9675 66.9247 26.4082 69.1657 27.4492 71.1285C27.4542 71.126 27.4599 71.1231 27.4649 71.1206C28.6885 70.5072 30.7747 69.1092 33.6176 65.9598C34.1487 65.3714 34.9103 65.0411 35.7034 65.0554C41.7224 65.1635 47.662 63.67 52.912 60.7282C53.6036 60.3408 54.4295 60.2718 55.1761 60.5387C59.1745 61.9686 61.6759 62.2124 63.0442 62.1739C63.0507 62.1737 63.0572 62.1731 63.0637 62.1729C63.0496 59.9521 62.3714 57.7705 61.0928 55.9194C60.4976 55.0575 60.4471 53.9311 60.9627 53.0195C62.5093 50.2848 62.9357 47.0585 62.1518 44.017L62.148 44.0022C60.4818 37.3937 57.601 34.3347 54.5767 32.8665C51.3912 31.3201 47.5091 31.2631 43.3479 31.7772C42.3172 31.9046 41.3016 31.4403 40.7273 30.5762C40.1531 29.7119 40.1182 28.5969 40.6362 27.6979C41.091 26.9089 41.3746 26.0325 41.4681 25.1269C41.5615 24.2216 41.4632 23.3067 41.1794 22.442C41.1594 22.3811 41.1405 22.319 41.1249 22.2569L38.5357 11.9882C38.1663 10.5227 39.0569 9.03471 40.5243 8.66571C41.9916 8.29696 43.4799 9.18672 43.8494 10.652L45.0179 15.2867C47.0776 14.4205 48.976 14.0006 50.7604 13.9706C53.4747 13.9252 55.6385 14.7817 57.3963 15.831C58.2563 16.3443 59.0282 16.9092 59.701 17.4205C60.417 17.9645 60.9477 18.3887 61.5199 18.7955C62.6491 19.5981 63.2823 19.8285 63.8023 19.8276C65.315 19.8255 66.5436 21.0477 66.5465 22.5584C66.549 24.0696 65.3234 25.2968 63.8102 25.2993C61.5063 25.303 59.6864 24.2095 58.3416 23.2537C57.6769 22.7812 56.9632 22.2174 56.3824 21.7761C55.7587 21.3021 55.1788 20.8847 54.5841 20.5297C53.4319 19.842 52.2708 19.4189 50.8531 19.4426C49.7268 19.4615 48.2731 19.7692 46.3774 20.6783L46.4268 20.8745C46.9165 22.4289 47.0868 24.067 46.9194 25.6889C46.9078 25.8012 46.8907 25.9128 46.8759 26.0246C50.2121 25.9494 53.7255 26.3696 56.9723 27.9458C61.4869 30.1375 65.0335 34.3257 67.0741 41.246L67.4617 42.666C68.4561 46.5365 68.1003 50.6126 66.4814 54.2318C68.2593 57.4558 68.9229 61.1944 68.3373 64.8601C68.209 65.6633 67.7294 66.3686 67.0288 66.7834L65.6314 64.4304C67.028 66.7837 67.026 66.7852 67.0237 66.7866L67.0186 66.7899C67.0155 66.7917 67.0111 66.7927 67.0079 66.7945C67.0014 66.7983 66.9944 66.8036 66.9875 66.8075C66.9735 66.8155 66.9582 66.824 66.9426 66.8326C66.9111 66.8499 66.8764 66.869 66.8384 66.8883C66.7622 66.927 66.6729 66.9689 66.5702 67.0128C66.3639 67.1011 66.1036 67.1956 65.7873 67.2845C65.1533 67.4626 64.3008 67.6133 63.1976 67.6444C61.193 67.7008 58.3708 67.3616 54.5008 66.0916C49.0443 68.9272 42.9979 70.4474 36.8474 70.5307C34.0404 73.4803 31.7146 75.1134 29.9221 76.0118C28.9356 76.5062 28.1135 76.7765 27.4706 76.9195C27.1503 76.9907 26.8774 77.0302 26.654 77.0501C26.5424 77.06 26.4426 77.0657 26.3569 77.0677C26.3142 77.0687 26.2748 77.0682 26.2387 77.0679C26.2207 77.0677 26.2036 77.0675 26.1873 77.067C26.1791 77.0668 26.1709 77.0655 26.1632 77.0652C26.1593 77.0651 26.1553 77.0663 26.1516 77.0662L26.1456 77.0657C26.1431 77.0642 26.1439 77.0089 26.2282 74.9783L26.1414 77.0648C25.3275 77.0309 24.5708 76.6365 24.0768 75.9897C21.8229 73.0385 20.6352 69.4329 20.6719 65.7529C17.5512 63.348 15.3126 59.956 14.3417 56.1081L14.0073 54.6648C12.5127 47.5655 13.6394 42.1734 16.5798 38.1028C18.6887 35.1834 21.5806 33.1675 24.5571 31.6821C24.4894 31.5876 24.4187 31.4952 24.3536 31.3987C23.4359 30.0369 22.812 28.5005 22.5145 26.8874L19.9371 16.665C19.5676 15.1995 20.4582 13.7115 21.9256 13.3425C23.3928 12.974 24.8813 13.8636 25.2507 15.3288Z" fill="black"/>
</g>
<defs>
<clipPath id="clip0_24_28">
<rect width="65.7532" height="65.6753" fill="white" transform="matrix(-0.969809 0.243866 -0.244484 -0.969653 79.8246 63.6823)"/>
</clipPath>
</defs>
</svg>
