<svg width="110" height="43" viewBox="0 0 110 43" fill="none" xmlns="http://www.w3.org/2000/svg">
<path d="M106.999 17.8805C107.294 17.2565 108.039 16.99 108.663 17.2848C109.287 17.5797 109.554 18.3247 109.259 18.9488C103.589 30.9535 93.3524 39.2844 82.1173 41.8033C71.6016 44.1608 60.3082 41.3992 51.2492 31.9781L50.5138 40.3189C50.4532 41.0066 49.846 41.5153 49.1584 41.4547C48.4707 41.3939 47.9629 40.7869 48.0236 40.0992L49.0119 28.8932C49.0725 28.2056 49.6789 27.697 50.3664 27.7574L61.5734 28.7467C62.261 28.8074 62.7687 29.4136 62.7082 30.1012C62.6475 30.7888 62.0413 31.2975 61.3537 31.2369L53.3244 30.5279C61.7346 39.0978 72.0224 41.5044 81.5705 39.3639C91.9818 37.0296 101.625 29.2577 106.999 17.8805Z" fill="black"/>
<path d="M38.3603 21.0697C38.3601 11.5493 30.6312 3.83258 21.0981 3.83258C11.565 3.83279 3.83795 11.5495 3.83775 21.0697C3.83775 30.59 11.5649 38.3084 21.0981 38.3087C30.6314 38.3087 38.3603 30.5902 38.3603 21.0697ZM19.1811 28.731V21.0697C19.1813 20.0121 20.0391 19.1555 21.0981 19.1553C22.1572 19.1553 23.0167 20.012 23.0169 21.0697V28.731C23.0169 29.7888 22.1573 30.6473 21.0981 30.6473C20.039 30.6471 19.1811 29.7887 19.1811 28.731ZM21.1172 11.4939C22.1763 11.4939 23.0359 12.3506 23.036 13.4083C23.036 14.4661 22.1764 15.3246 21.1172 15.3246H21.0981C20.039 15.3244 19.1811 14.466 19.1811 13.4083C19.1812 12.3507 20.039 11.4941 21.0981 11.4939H21.1172ZM42.1961 21.0697C42.1961 32.7058 32.7499 42.1393 21.0981 42.1393C9.44639 42.1391 0 32.7057 0 21.0697C0.000205766 9.43381 9.44652 0.000205484 21.0981 0C32.7498 0 42.1959 9.43368 42.1961 21.0697Z" fill="black"/>
</svg>
