<svg width="208" height="60" viewBox="0 0 208 60" fill="none" xmlns="http://www.w3.org/2000/svg">
<path d="M77.737 24.336C76.777 24.336 75.945 24.176 75.241 23.856C74.553 23.536 74.025 23.072 73.657 22.464C73.289 21.84 73.105 21.104 73.105 20.256C73.105 19.088 73.481 18.144 74.233 17.424C74.985 16.688 76.065 16.208 77.473 15.984L82.465 15.216V17.544L77.857 18.264C77.217 18.36 76.737 18.568 76.417 18.888C76.097 19.192 75.937 19.608 75.937 20.136C75.937 20.664 76.145 21.096 76.561 21.432C76.993 21.752 77.553 21.912 78.241 21.912C78.977 21.912 79.649 21.76 80.257 21.456C80.865 21.152 81.345 20.736 81.697 20.208C82.049 19.68 82.225 19.096 82.225 18.456V15.12C82.225 14.016 81.937 13.176 81.361 12.6C80.801 12.008 79.985 11.712 78.913 11.712C77.777 11.712 76.865 11.984 76.177 12.528C75.489 13.072 75.025 13.856 74.785 14.88H72.241C72.369 13.696 72.713 12.68 73.273 11.832C73.833 10.984 74.593 10.336 75.553 9.888C76.513 9.44 77.649 9.216 78.961 9.216C80.833 9.216 82.273 9.688 83.281 10.632C84.305 11.576 84.817 12.912 84.817 14.64V24H82.225V22.464H81.889C81.473 23.072 80.905 23.536 80.185 23.856C79.481 24.176 78.665 24.336 77.737 24.336ZM96.6818 24.384C95.7378 24.384 94.8738 24.216 94.0898 23.88C93.3058 23.544 92.6658 23.072 92.1698 22.464H91.8338V24H89.1938V3.648H91.8338V11.136H92.1698C92.6658 10.528 93.3058 10.056 94.0898 9.72C94.8738 9.384 95.7378 9.216 96.6818 9.216C97.9938 9.216 99.1458 9.536 100.138 10.176C101.146 10.8 101.922 11.688 102.466 12.84C103.026 13.976 103.306 15.296 103.306 16.8C103.306 18.304 103.026 19.632 102.466 20.784C101.922 21.92 101.146 22.808 100.138 23.448C99.1458 24.072 97.9938 24.384 96.6818 24.384ZM91.7378 16.8C91.7378 18.368 92.1378 19.608 92.9378 20.52C93.7378 21.432 94.8258 21.888 96.2018 21.888C97.5778 21.888 98.6658 21.432 99.4658 20.52C100.266 19.608 100.666 18.368 100.666 16.8C100.666 15.232 100.266 13.992 99.4658 13.08C98.6658 12.168 97.5778 11.712 96.2018 11.712C94.8258 11.712 93.7378 12.168 92.9378 13.08C92.1378 13.992 91.7378 15.232 91.7378 16.8ZM113.105 24.384C111.665 24.384 110.393 24.072 109.289 23.448C108.201 22.808 107.353 21.92 106.745 20.784C106.153 19.632 105.857 18.304 105.857 16.8C105.857 15.296 106.153 13.976 106.745 12.84C107.353 11.688 108.201 10.8 109.289 10.176C110.393 9.536 111.665 9.216 113.105 9.216C114.545 9.216 115.809 9.536 116.897 10.176C118.001 10.8 118.849 11.688 119.441 12.84C120.049 13.976 120.353 15.296 120.353 16.8C120.353 18.304 120.049 19.632 119.441 20.784C118.849 21.92 118.001 22.808 116.897 23.448C115.809 24.072 114.545 24.384 113.105 24.384ZM113.105 21.888C114.049 21.888 114.865 21.688 115.553 21.288C116.257 20.872 116.793 20.28 117.161 19.512C117.529 18.744 117.713 17.84 117.713 16.8C117.713 15.76 117.529 14.856 117.161 14.088C116.793 13.32 116.257 12.736 115.553 12.336C114.865 11.92 114.049 11.712 113.105 11.712C112.161 11.712 111.337 11.92 110.633 12.336C109.945 12.736 109.417 13.32 109.049 14.088C108.681 14.856 108.497 15.76 108.497 16.8C108.497 17.84 108.681 18.744 109.049 19.512C109.417 20.28 109.945 20.872 110.633 21.288C111.337 21.688 112.161 21.888 113.105 21.888ZM133.288 24V9.6H135.928V24H133.288ZM126.328 17.904C126.328 19.184 126.624 20.168 127.216 20.856C127.824 21.544 128.688 21.888 129.808 21.888C130.928 21.888 131.784 21.544 132.376 20.856C132.984 20.168 133.288 19.184 133.288 17.904H134.008V22.8H132.952C132.52 23.312 131.952 23.704 131.248 23.976C130.56 24.248 129.8 24.384 128.968 24.384C127.928 24.384 127.008 24.144 126.208 23.664C125.408 23.184 124.784 22.512 124.336 21.648C123.904 20.768 123.688 19.76 123.688 18.624V9.6H126.328V17.904ZM146.449 24.384C144.993 24.384 143.865 23.92 143.065 22.992C142.281 22.048 141.889 20.704 141.889 18.96V12.096H139.009V9.6H141.889V5.856H144.529V9.6H150.529V12.096H144.529V18.96C144.529 19.936 144.697 20.672 145.033 21.168C145.385 21.648 145.889 21.888 146.545 21.888C147.265 21.888 147.841 21.648 148.273 21.168C148.705 20.688 149.009 19.952 149.185 18.96H151.537C151.473 20.704 151.001 22.048 150.121 22.992C149.241 23.92 148.017 24.384 146.449 24.384ZM164.209 9.6V24H161.569V9.6H164.209ZM170.449 15.336C170.449 14.168 170.177 13.272 169.633 12.648C169.089 12.024 168.321 11.712 167.329 11.712C166.337 11.712 165.569 12.032 165.025 12.672C164.481 13.296 164.209 14.184 164.209 15.336H162.769V10.8H164.545C164.865 10.288 165.337 9.896 165.961 9.624C166.601 9.352 167.337 9.216 168.169 9.216C169.145 9.216 170.001 9.44 170.737 9.888C171.489 10.336 172.065 10.968 172.465 11.784C172.881 12.6 173.089 13.544 173.089 14.616V24H170.449V15.336ZM179.329 15.336C179.329 14.168 179.057 13.272 178.513 12.648C177.969 12.024 177.201 11.712 176.209 11.712C175.217 11.712 174.449 12.032 173.905 12.672C173.361 13.296 173.089 14.184 173.089 15.336H171.649V11.04H172.801C173.169 10.48 173.697 10.04 174.385 9.72C175.073 9.384 175.841 9.216 176.689 9.216C177.729 9.216 178.649 9.44 179.449 9.888C180.249 10.336 180.865 10.968 181.297 11.784C181.745 12.6 181.969 13.544 181.969 14.616V24H179.329V15.336ZM197.43 15.312L196.542 16.68C196.542 15.096 196.174 13.864 195.438 12.984C194.718 12.104 193.694 11.664 192.366 11.664C190.99 11.664 189.902 12.12 189.102 13.032C188.302 13.928 187.902 15.144 187.902 16.68C187.902 18.344 188.302 19.64 189.102 20.568C189.902 21.48 191.03 21.936 192.486 21.936C193.462 21.936 194.334 21.728 195.102 21.312C195.886 20.896 196.494 20.32 196.926 19.584H199.422C199.118 20.608 198.638 21.48 197.982 22.2C197.326 22.904 196.534 23.448 195.606 23.832C194.678 24.2 193.638 24.384 192.486 24.384C191.014 24.384 189.734 24.08 188.646 23.472C187.574 22.848 186.75 21.96 186.174 20.808C185.598 19.64 185.31 18.264 185.31 16.68C185.31 15.208 185.598 13.904 186.174 12.768C186.766 11.632 187.598 10.76 188.67 10.152C189.742 9.528 190.974 9.216 192.366 9.216C193.71 9.216 194.878 9.52 195.87 10.128C196.878 10.72 197.646 11.576 198.174 12.696C198.718 13.816 198.99 15.128 198.99 16.632C198.99 16.872 198.974 17.216 198.942 17.664H187.422V15.312H197.43Z" fill="black"/>
<path d="M106.999 35.2011C107.294 34.5772 108.039 34.3107 108.663 34.6054C109.287 34.9004 109.554 35.6454 109.259 36.2695C103.589 48.2742 93.3524 56.6051 82.1173 59.124C71.6016 61.4815 60.3082 58.7199 51.2492 49.2988L50.5138 57.6396C50.4532 58.3273 49.846 58.836 49.1584 58.7754C48.4707 58.7146 47.9629 58.1075 48.0236 57.4199L49.0119 46.2138C49.0725 45.5263 49.6789 45.0177 50.3664 45.0781L61.5734 46.0673C62.261 46.1281 62.7687 46.7343 62.7082 47.4218C62.6475 48.1095 62.0413 48.6182 61.3537 48.5576L53.3244 47.8486C61.7346 56.4184 72.0224 58.8251 81.5705 56.6845C91.9818 54.3503 101.625 46.5784 106.999 35.2011Z" fill="black"/>
<path d="M38.3603 38.3903C38.3601 28.87 30.6312 21.1533 21.0981 21.1533C11.565 21.1535 3.83795 28.8702 3.83775 38.3903C3.83775 47.9107 11.5649 55.6291 21.0981 55.6293C30.6314 55.6293 38.3603 47.9108 38.3603 38.3903ZM19.1811 46.0517V38.3903C19.1813 37.3328 20.0391 36.4762 21.0981 36.476C22.1572 36.476 23.0167 37.3327 23.0169 38.3903V46.0517C23.0169 47.1095 22.1573 47.968 21.0981 47.968C20.039 47.9678 19.1811 47.1094 19.1811 46.0517ZM21.1172 28.8146C22.1763 28.8146 23.0359 29.6713 23.036 30.729C23.036 31.7868 22.1764 32.6453 21.1172 32.6453H21.0981C20.039 32.6451 19.1811 31.7867 19.1811 30.729C19.1812 29.6714 20.039 28.8148 21.0981 28.8146H21.1172ZM42.1961 38.3903C42.1961 50.0265 32.7499 59.46 21.0981 59.46C9.44639 59.4598 0 50.0264 0 38.3903C0.000205766 26.7545 9.44652 17.3209 21.0981 17.3207C32.7498 17.3207 42.1959 26.7544 42.1961 38.3903Z" fill="black"/>
</svg>
