<svg width="138" height="41" viewBox="0 0 138 41" fill="none" xmlns="http://www.w3.org/2000/svg">
<path d="M127.237 41H126.858C126.102 41 125.758 40.8621 125.552 40.2759L124.038 36.2762C124.004 36.1728 123.97 36.0694 123.97 36.0004C123.97 35.4832 124.657 35.4142 125.07 35.4142C127.099 35.3797 128.062 34.4143 128.062 33.5868C128.062 33.1385 127.615 32.5869 127.133 31.9662L126.205 30.9318C124.692 29.2078 124.073 27.7252 124.073 26.4149C124.073 22.5187 129.678 20.4499 134.183 20.4499C135.524 20.4499 135.868 20.5878 136.109 21.2084L137.656 25.2081C137.725 25.3461 137.725 25.4495 137.725 25.5529C137.725 25.9322 137.347 26.0701 136.9 26.0701H136.762C134.699 26.0701 133.908 26.7597 133.908 27.4493C133.908 28.0355 134.424 28.6906 135.73 30.1388C137.312 31.8628 138 33.4144 138 34.7246C138 38.7933 131.845 41 127.237 41Z" fill="black"/>
<path d="M123.709 31.3884L120.407 34.7075C119.934 35.1708 119.512 35.3609 119.086 35.2239C118.759 35.1185 116.635 33.8555 115.492 31.7856C113.505 32.124 111.611 31.9489 109.941 31.4115C104.473 29.6516 101.104 23.9318 102.796 18.6461C104.057 14.7065 108.658 9.92265 115.141 12.0092C116.779 12.5362 118.267 13.4137 119.366 14.3828C119.636 14.2162 119.962 14.2125 120.355 14.339L120.519 14.3917L126.025 16.7073C126.856 17.0469 126.948 17.5475 126.822 17.9415L126.77 18.1056C125.355 20.9456 123.982 23.6543 123.288 25.8211C122.658 27.7909 122.566 29.3185 123.435 30.2139C123.71 30.4834 124.007 30.7963 123.902 31.1246C123.881 31.1902 123.817 31.2782 123.709 31.3884ZM114.883 25.9041C115.058 25.0189 115.286 24.0786 115.612 23.0609C115.886 22.2073 116.202 21.3314 116.583 20.3676C116.4 19.5845 115.663 18.8404 114.714 18.5347C112.651 17.8708 110.864 19.5046 110.328 21.179C109.739 23.0175 110.512 25.0043 112.64 25.6893C113.262 25.8895 114.024 25.99 114.883 25.9041Z" fill="black"/>
<path d="M90.5275 39.1092L90.2631 35.7377C90.2183 35.2377 90.5685 34.8067 90.9214 34.6702L91.0498 34.6206C91.2868 34.5659 91.5113 34.4791 91.7039 34.4047C93.629 33.6605 94.8993 32.1716 94.6906 30.4786C94.2583 27.2459 91.4962 18.8165 89.346 13.0329C89.0936 12.2806 89.4291 12.003 89.8142 11.8542C89.8462 11.8418 95.3554 9.97076 96.0736 9.73005C96.6117 9.59594 97.0366 9.83819 97.2098 10.2886C97.2964 10.5138 101.707 23.5166 102.55 28.5858C103.468 34.3283 100.131 37.7249 96.3444 39.1886C94.6759 39.8336 92.9035 40.1123 91.3653 40.0417C90.9505 40.0173 90.7058 39.6685 90.5944 39.3789C90.5573 39.2824 90.5202 39.1859 90.5275 39.1092ZM95.6561 3.2767C96.6581 5.88261 95.3569 8.82459 92.7579 9.8293C90.1269 10.8464 87.1928 9.54172 86.1907 6.93581C85.1763 4.29773 86.4775 1.35574 89.1086 0.338633C91.7076 -0.666071 94.6417 0.638619 95.6561 3.2767Z" fill="black"/>
<path d="M79.6772 37.6523L79.2863 37.5196C71.8927 35.0088 69.8894 28.686 71.5661 23.722C73.1436 19.0519 78.0878 15.2703 85.514 17.7921C93.5916 20.535 91.512 27.8741 91.148 28.9518C90.6406 30.4541 89.6026 31.485 87.4603 31.4855C85.7529 31.4882 83.2213 31.029 81.5056 30.5192C80.9845 30.3422 80.8988 30.0583 80.9009 29.6222C80.8741 28.4117 80.9723 26.0788 81.0164 25.9482C81.1377 25.5889 81.4534 25.5141 81.91 25.5599C83.736 25.7432 83.9861 25.7553 84.1405 25.2981C84.2398 25.0042 83.9739 23.749 82.6059 23.2844C81.0425 22.7535 79.2764 23.6827 78.5925 25.7075C77.8093 28.0263 78.6205 31.214 82.6919 32.5966C82.9199 32.674 83.1804 32.7625 83.4195 32.8073L83.4846 32.8294C83.9406 32.9842 84.395 33.4662 84.2075 34.0214C84.0972 34.3479 82.5002 36.2811 81.6366 37.2256C81.1996 37.6596 80.6217 37.973 79.6772 37.6523Z" fill="black"/>
<path d="M62.3777 34.3914H58.9045C58.2167 34.3914 57.5977 34.2535 57.2195 33.5984L49.3446 18.634C49.1727 18.2892 49.1039 18.0134 49.1039 17.772C49.1039 17.3928 49.3102 17.1514 49.6885 16.979C50.5138 16.5997 55.0186 14.7378 55.7408 14.7378C56.2566 14.7378 56.6005 14.9791 56.7724 15.324L60.6239 23.8405C60.6927 24.0129 60.7958 24.0819 60.8646 24.0819C60.9678 24.0819 61.0366 24.0129 61.1397 23.806C62.3433 21.0132 64.2346 15.9446 64.4754 15.3584C64.6817 14.9102 65.0256 14.7033 65.4726 14.7033C65.7133 14.7033 65.9541 14.7378 66.2292 14.8412L70.8372 16.2549C71.6281 16.4963 71.9376 16.8411 71.9376 17.3238C71.9376 17.8755 68.1549 30.2193 63.9252 33.8742C63.5813 34.1501 62.9967 34.3914 62.3777 34.3914Z" fill="black"/>
<path d="M38.4006 35.2534H38.0223C37.2658 35.2534 36.9219 35.1155 36.7156 34.5293L35.2025 30.5297C35.1681 30.4262 35.1337 30.3228 35.1337 30.2538C35.1337 29.7366 35.8215 29.6677 36.2342 29.6677C38.2631 29.6332 39.2259 28.6677 39.2259 27.8402C39.2259 27.392 38.7789 26.8403 38.2975 26.2197L37.369 25.1853C35.8559 23.4612 35.2369 21.9786 35.2369 20.6684C35.2369 16.7721 40.8422 14.7033 45.347 14.7033C46.6881 14.7033 47.032 14.8412 47.2727 15.4619L48.8202 19.4616C48.889 19.5995 48.889 19.7029 48.889 19.8064C48.889 20.1856 48.5107 20.3236 48.0637 20.3236H47.9261C45.8628 20.3236 45.0719 21.0132 45.0719 21.7028C45.0719 22.2889 45.5877 22.944 46.8945 24.3922C48.4763 26.1162 49.1641 27.6678 49.1641 28.9781C49.1641 33.0467 43.0086 35.2534 38.4006 35.2534Z" fill="black"/>
<path d="M33.6677 30.5406L30.7702 34.2198C30.3534 34.7347 29.9561 34.9724 29.5175 34.8856C29.1801 34.8188 26.9251 33.8102 25.5512 31.8865C23.6171 32.4526 21.7153 32.498 19.9947 32.1574C14.3606 31.0423 10.3549 25.7509 11.427 20.3047C12.2262 16.2454 16.2459 10.9609 22.9258 12.2829C24.6127 12.6168 26.1925 13.3161 27.3951 14.1515C27.6441 13.9548 27.9677 13.9134 28.3726 13.9935L28.5413 14.0269L34.2779 15.6895C35.1417 15.9307 35.2913 16.4172 35.2114 16.8232L35.1781 16.9923C34.0998 19.9771 33.0481 22.8266 32.6086 25.0592C32.2091 27.0889 32.2938 28.6169 33.2602 29.4056C33.5643 29.6415 33.8954 29.9179 33.8288 30.2562C33.8155 30.3239 33.7618 30.4187 33.6677 30.5406ZM24.2688 26.1148C24.3408 25.2153 24.4598 24.2548 24.6662 23.2061C24.8393 22.3266 25.0529 21.42 25.3201 20.4185C25.0485 19.6618 24.2308 19.008 23.2524 18.8143C21.127 18.3937 19.54 20.2234 19.2003 21.9486C18.8274 23.843 19.8235 25.7271 22.0164 26.1611C22.6574 26.288 23.4263 26.2995 24.2688 26.1148Z" fill="black"/>
<path d="M10.5737 33.8258L3.69958 34.5509C3.32339 34.5905 2.98322 34.3144 2.94364 33.9372L0.00445757 5.92155C-0.0387127 5.51006 0.236704 5.16898 0.612897 5.1293L7.48698 4.40426C7.86317 4.36459 8.20334 4.64074 8.24651 5.05223L11.1857 33.0679C11.2253 33.4451 10.9499 33.7861 10.5737 33.8258Z" fill="black"/>
</svg>
