<svg width="124" height="74" viewBox="0 0 124 74" fill="none" xmlns="http://www.w3.org/2000/svg">
<path d="M0.637227 8.93508C0.770057 8.25763 1.42657 7.81593 2.10402 7.94876C2.78134 8.0816 3.22298 8.73823 3.09035 9.41555C1.69452 16.5346 2.43989 26.3399 8.86965 32.9878C14.9614 39.2862 26.5329 43.1251 47.4497 38.5982L40.4634 34.3521C39.8738 33.9936 39.6863 33.2251 40.0445 32.6353C40.403 32.0453 41.1723 31.8569 41.7622 32.2154L51.3765 38.0581C51.9662 38.4167 52.1539 39.186 51.7954 39.7759L45.9527 49.3892C45.5941 49.9792 44.8248 50.1666 44.2349 49.8081C43.6454 49.4495 43.4577 48.6811 43.8159 48.0913L48.1187 41.0103C26.7068 45.6703 14.0412 41.9299 7.07277 34.7251C-0.150192 27.2569 -0.841192 16.4755 0.637227 8.93508Z" fill="black"/>
<path d="M80.4137 7.69712C81.794 7.29307 83.2565 7.26043 84.6545 7.59731L84.6558 7.59495L106.144 12.7112L106.156 12.7134L106.677 12.8575C107.615 13.1517 108.49 13.6151 109.265 14.2181C109.473 14.3308 109.672 14.4703 109.851 14.6411C110.002 14.7842 110.129 14.9427 110.239 15.1083C111.102 16.0369 111.74 17.153 112.1 18.3726L118.267 39.3845C118.671 40.7662 118.705 42.23 118.364 43.6285C118.023 45.0269 117.319 46.3111 116.324 47.3523L116.315 47.361L101.001 63.2431C100.309 63.9668 99.492 64.5519 98.5945 64.9797C98.2806 65.2929 97.8862 65.5351 97.4304 65.6686C96.9744 65.8019 96.5119 65.811 96.0782 65.7163C95.0917 65.8399 94.0877 65.7898 93.1146 65.5536L93.1141 65.5518L71.6374 60.4402L71.6266 60.4374C70.2261 60.0974 68.9397 59.3958 67.8965 58.4027C66.8532 57.4094 66.0885 56.1597 65.6816 54.7788L59.5138 33.7669C59.1572 32.5473 59.0919 31.2641 59.3156 30.018C59.319 29.8182 59.3416 29.6155 59.391 29.4132C59.4502 29.1706 59.5429 28.9447 59.6583 28.7362C60.0442 27.644 60.6539 26.6409 61.4588 25.7985L61.4664 25.7903L68.5764 18.4143C68.8352 17.8661 69.2664 17.4329 69.7841 17.1617L76.7896 9.89776L76.7901 9.89959C77.7847 8.86196 79.0334 8.10135 80.4137 7.69712ZM70.94 53.2335L71.0625 53.5695C71.2076 53.8966 71.4161 54.1933 71.6771 54.4418C72.0234 54.7715 72.4505 55.0037 72.9151 55.1176L92.8737 59.8681L86.714 38.8836L65.1889 33.641L70.94 53.2335ZM91.9723 37.3443L98.132 58.3287L112.359 43.5744C112.691 43.2273 112.927 42.799 113.04 42.3328C113.154 41.8673 113.142 41.3802 113.008 40.9201L107.257 21.3259L91.9723 37.3443ZM66.6002 28.3529L88.0073 33.5664L93.4798 27.8312L72.0969 22.6524L66.6002 28.3529ZM81.9557 12.9501C81.4945 13.0852 81.0776 13.339 80.7457 13.6862L80.7363 13.6949L76.499 18.0879L97.8454 23.2575L103.208 17.6361L83.3865 12.9191L83.3739 12.9168C82.9066 12.8034 82.4172 12.815 81.9557 12.9501Z" fill="black"/>
</svg>
