<svg width="185" height="124" viewBox="0 0 185 124" fill="none" xmlns="http://www.w3.org/2000/svg">
<path d="M4.944 9.6V24H2.304V9.6H4.944ZM11.184 15.336C11.184 14.168 10.912 13.272 10.368 12.648C9.824 12.024 9.056 11.712 8.064 11.712C7.072 11.712 6.304 12.032 5.76 12.672C5.216 13.296 4.944 14.184 4.944 15.336H3.504V10.8H5.28C5.6 10.288 6.072 9.896 6.696 9.624C7.336 9.352 8.072 9.216 8.904 9.216C9.88 9.216 10.736 9.44 11.472 9.888C12.224 10.336 12.8 10.968 13.2 11.784C13.616 12.6 13.824 13.544 13.824 14.616V24H11.184V15.336ZM20.064 15.336C20.064 14.168 19.792 13.272 19.248 12.648C18.704 12.024 17.936 11.712 16.944 11.712C15.952 11.712 15.184 12.032 14.64 12.672C14.096 13.296 13.824 14.184 13.824 15.336H12.384V11.04H13.536C13.904 10.48 14.432 10.04 15.12 9.72C15.808 9.384 16.576 9.216 17.424 9.216C18.464 9.216 19.384 9.44 20.184 9.888C20.984 10.336 21.6 10.968 22.032 11.784C22.48 12.6 22.704 13.544 22.704 14.616V24H20.064V15.336ZM28.0374 9.6L32.5974 22.8H29.7654L25.1574 9.6H28.0374ZM33.4134 26.16C33.1574 26.832 32.8374 27.392 32.4534 27.84C32.0854 28.288 31.6454 28.624 31.1334 28.848C30.6374 29.072 30.0774 29.184 29.4534 29.184C28.6374 29.184 27.9334 29.032 27.3414 28.728C26.7494 28.424 26.2774 27.976 25.9254 27.384C25.5894 26.792 25.3894 26.08 25.3254 25.248H27.7734C27.9654 25.776 28.1814 26.16 28.4214 26.4C28.6774 26.656 29.0054 26.784 29.4054 26.784C29.8214 26.784 30.1574 26.664 30.4134 26.424C30.6694 26.2 30.8934 25.824 31.0854 25.296L36.0774 9.6H38.7414L33.4134 26.16ZM9.792 38.216C11.104 38.216 12.256 38.536 13.248 39.176C14.256 39.8 15.032 40.688 15.576 41.84C16.136 42.976 16.416 44.296 16.416 45.8C16.416 47.304 16.136 48.632 15.576 49.784C15.032 50.92 14.256 51.808 13.248 52.448C12.256 53.072 11.104 53.384 9.792 53.384C8.848 53.384 7.984 53.216 7.2 52.88C6.416 52.544 5.776 52.072 5.28 51.464H4.944V57.8H2.304V38.6H4.944V40.136H5.28C5.776 39.528 6.416 39.056 7.2 38.72C7.984 38.384 8.848 38.216 9.792 38.216ZM4.848 45.8C4.848 47.368 5.248 48.608 6.048 49.52C6.848 50.432 7.936 50.888 9.312 50.888C10.688 50.888 11.776 50.432 12.576 49.52C13.376 48.608 13.776 47.368 13.776 45.8C13.776 44.232 13.376 42.992 12.576 42.08C11.776 41.168 10.688 40.712 9.312 40.712C7.936 40.712 6.848 41.168 6.048 42.08C5.248 42.992 4.848 44.232 4.848 45.8ZM19.9993 38.6H22.6393V39.8H22.9753C23.3113 39.288 23.7593 38.896 24.3193 38.624C24.8793 38.352 25.5113 38.216 26.2153 38.216C27.4953 38.216 28.5033 38.656 29.2393 39.536C29.9913 40.416 30.3673 41.624 30.3673 43.16V44.312H27.6313V43.544C27.6313 42.584 27.4473 41.872 27.0793 41.408C26.7273 40.944 26.1833 40.712 25.4473 40.712C24.4873 40.712 23.7753 41.088 23.3113 41.84C22.8633 42.592 22.6393 43.752 22.6393 45.32V53H19.9993V38.6ZM39.645 53.384C38.205 53.384 36.933 53.072 35.829 52.448C34.741 51.808 33.893 50.92 33.285 49.784C32.693 48.632 32.397 47.304 32.397 45.8C32.397 44.296 32.693 42.976 33.285 41.84C33.893 40.688 34.741 39.8 35.829 39.176C36.933 38.536 38.205 38.216 39.645 38.216C41.085 38.216 42.349 38.536 43.437 39.176C44.541 39.8 45.389 40.688 45.981 41.84C46.589 42.976 46.893 44.296 46.893 45.8C46.893 47.304 46.589 48.632 45.981 49.784C45.389 50.92 44.541 51.808 43.437 52.448C42.349 53.072 41.085 53.384 39.645 53.384ZM39.645 50.888C40.589 50.888 41.405 50.688 42.093 50.288C42.797 49.872 43.333 49.28 43.701 48.512C44.069 47.744 44.253 46.84 44.253 45.8C44.253 44.76 44.069 43.856 43.701 43.088C43.333 42.32 42.797 41.736 42.093 41.336C41.405 40.92 40.589 40.712 39.645 40.712C38.701 40.712 37.877 40.92 37.173 41.336C36.485 41.736 35.957 42.32 35.589 43.088C35.221 43.856 35.037 44.76 35.037 45.8C35.037 46.84 35.221 47.744 35.589 48.512C35.957 49.28 36.485 49.872 37.173 50.288C37.877 50.688 38.701 50.888 39.645 50.888ZM53.7321 38.6V53.624C53.7321 55.032 53.3481 56.144 52.5801 56.96C51.8121 57.776 50.7641 58.184 49.4361 58.184C48.1561 58.184 47.1321 57.864 46.3641 57.224C45.5961 56.584 45.1881 55.704 45.1401 54.584H47.6361C47.7641 54.968 47.9721 55.264 48.2601 55.472C48.5641 55.68 48.9561 55.784 49.4361 55.784C49.9641 55.784 50.3721 55.592 50.6601 55.208C50.9481 54.84 51.0921 54.312 51.0921 53.624V38.6H53.7321ZM52.4121 36.392C51.8041 36.392 51.3161 36.224 50.9481 35.888C50.5801 35.536 50.3961 35.08 50.3961 34.52C50.3961 33.96 50.5801 33.512 50.9481 33.176C51.3161 32.824 51.8041 32.648 52.4121 32.648C53.0201 32.648 53.5081 32.824 53.8761 33.176C54.2441 33.512 54.4281 33.96 54.4281 34.52C54.4281 35.08 54.2441 35.536 53.8761 35.888C53.5081 36.224 53.0201 36.392 52.4121 36.392ZM69.4311 44.312L68.5431 45.68C68.5431 44.096 68.1751 42.864 67.4391 41.984C66.7191 41.104 65.6951 40.664 64.3671 40.664C62.9911 40.664 61.9031 41.12 61.1031 42.032C60.3031 42.928 59.9031 44.144 59.9031 45.68C59.9031 47.344 60.3031 48.64 61.1031 49.568C61.9031 50.48 63.0311 50.936 64.4871 50.936C65.4631 50.936 66.3351 50.728 67.1031 50.312C67.8871 49.896 68.4951 49.32 68.9271 48.584H71.4231C71.1191 49.608 70.6391 50.48 69.9831 51.2C69.3271 51.904 68.5351 52.448 67.6071 52.832C66.6791 53.2 65.6391 53.384 64.4871 53.384C63.0151 53.384 61.7351 53.08 60.6471 52.472C59.5751 51.848 58.7511 50.96 58.1751 49.808C57.5991 48.64 57.3111 47.264 57.3111 45.68C57.3111 44.208 57.5991 42.904 58.1751 41.768C58.7671 40.632 59.5991 39.76 60.6711 39.152C61.7431 38.528 62.9751 38.216 64.3671 38.216C65.7111 38.216 66.8791 38.52 67.8711 39.128C68.8791 39.72 69.6471 40.576 70.1751 41.696C70.7191 42.816 70.9911 44.128 70.9911 45.632C70.9911 45.872 70.9751 46.216 70.9431 46.664H59.4231V44.312H69.4311ZM80.6801 53.384C79.2721 53.384 78.0321 53.072 76.9601 52.448C75.9041 51.824 75.0801 50.944 74.4881 49.808C73.8961 48.672 73.6001 47.36 73.6001 45.872C73.6001 44.352 73.9041 43.016 74.5121 41.864C75.1361 40.712 76.0081 39.816 77.1281 39.176C78.2481 38.536 79.5441 38.216 81.0161 38.216C82.2961 38.216 83.4321 38.464 84.4241 38.96C85.4321 39.456 86.2241 40.152 86.8001 41.048C87.3921 41.944 87.7121 42.984 87.7601 44.168H85.3361C85.1121 43.096 84.6081 42.256 83.8241 41.648C83.0561 41.024 82.0881 40.712 80.9201 40.712C79.9601 40.712 79.1281 40.92 78.4241 41.336C77.7201 41.752 77.1761 42.352 76.7921 43.136C76.4241 43.904 76.2401 44.816 76.2401 45.872C76.2401 46.912 76.4161 47.808 76.7681 48.56C77.1361 49.312 77.6481 49.888 78.3041 50.288C78.9761 50.688 79.7681 50.888 80.6801 50.888C81.7521 50.888 82.6561 50.624 83.3921 50.096C84.1281 49.552 84.6161 48.808 84.8561 47.864H87.2801C87.2161 48.952 86.8961 49.92 86.3201 50.768C85.7441 51.6 84.9681 52.248 83.9921 52.712C83.0161 53.16 81.9121 53.384 80.6801 53.384ZM96.7549 53.384C95.2989 53.384 94.1709 52.92 93.3709 51.992C92.5869 51.048 92.1949 49.704 92.1949 47.96V41.096H89.3149V38.6H92.1949V34.856H94.8349V38.6H100.835V41.096H94.8349V47.96C94.8349 48.936 95.0029 49.672 95.3389 50.168C95.6909 50.648 96.1949 50.888 96.8509 50.888C97.5709 50.888 98.1469 50.648 98.5789 50.168C99.0109 49.688 99.3149 48.952 99.4909 47.96H101.843C101.779 49.704 101.307 51.048 100.427 51.992C99.5469 52.92 98.3229 53.384 96.7549 53.384ZM106.569 48.584C106.809 49.32 107.265 49.888 107.937 50.288C108.625 50.688 109.505 50.888 110.577 50.888C111.697 50.888 112.537 50.72 113.097 50.384C113.657 50.048 113.937 49.544 113.937 48.872C113.937 48.456 113.705 48.112 113.241 47.84C112.793 47.568 112.113 47.368 111.201 47.24L109.137 46.952C107.441 46.712 106.201 46.264 105.417 45.608C104.633 44.936 104.241 43.992 104.241 42.776C104.241 41.816 104.489 41 104.985 40.328C105.481 39.64 106.193 39.12 107.121 38.768C108.065 38.4 109.201 38.216 110.529 38.216C111.841 38.216 112.977 38.416 113.937 38.816C114.913 39.216 115.665 39.8 116.193 40.568C116.721 41.336 117.009 42.248 117.057 43.304H114.657C114.417 42.472 113.945 41.832 113.241 41.384C112.537 40.936 111.617 40.712 110.481 40.712C109.297 40.712 108.401 40.88 107.793 41.216C107.185 41.552 106.881 42.056 106.881 42.728C106.881 43.144 107.105 43.488 107.553 43.76C108.017 44.032 108.705 44.232 109.617 44.36L111.681 44.648C113.377 44.888 114.617 45.344 115.401 46.016C116.185 46.672 116.577 47.608 116.577 48.824C116.577 49.784 116.337 50.608 115.857 51.296C115.377 51.968 114.681 52.488 113.769 52.856C112.873 53.208 111.793 53.384 110.529 53.384C109.233 53.384 108.113 53.2 107.169 52.832C106.241 52.448 105.513 51.896 104.985 51.176C104.473 50.456 104.193 49.592 104.145 48.584H106.569Z" fill="black"/>
<path d="M61.0518 58.8775C61.1847 58.2 61.8412 57.7583 62.5186 57.8911C63.1959 58.024 63.6376 58.6806 63.505 59.3579C62.1091 66.477 62.8545 76.2823 69.2843 82.9302C75.376 89.2286 86.9475 93.0675 107.864 88.5406L100.878 84.2945C100.288 83.9359 100.101 83.1675 100.459 82.5777C100.818 81.9877 101.587 81.7993 102.177 82.1577L111.791 88.0005C112.381 88.3591 112.568 89.1284 112.21 89.7183L106.367 99.3316C106.009 99.9215 105.239 100.109 104.649 99.7505C104.06 99.3919 103.872 98.6235 104.231 98.0337L108.533 90.9527C87.1214 95.6127 74.4558 91.8723 67.4874 84.6675C60.2644 77.1993 59.5734 66.4179 61.0518 58.8775Z" fill="black"/>
<path d="M140.828 57.6395C142.209 57.2355 143.671 57.2028 145.069 57.5397L145.07 57.5373L166.558 62.6535L166.571 62.6558L167.091 62.7999C168.03 63.0941 168.905 63.5575 169.68 64.1604C169.888 64.2732 170.086 64.4127 170.266 64.5835C170.416 64.7266 170.543 64.885 170.654 65.0507C171.517 65.9793 172.155 67.0954 172.514 68.315L178.682 89.3269C179.086 90.7086 179.12 92.1723 178.779 93.5709C178.437 94.9693 177.734 96.2534 176.739 97.2947L176.729 97.3034L161.415 113.185C160.723 113.909 159.907 114.494 159.009 114.922C158.695 115.235 158.301 115.477 157.845 115.611C157.389 115.744 156.926 115.753 156.493 115.659C155.506 115.782 154.502 115.732 153.529 115.496L153.529 115.494L132.052 110.383L132.041 110.38C130.641 110.04 129.354 109.338 128.311 108.345C127.268 107.352 126.503 106.102 126.096 104.721L119.928 83.7093C119.572 82.4897 119.507 81.2065 119.73 79.9604C119.734 79.7606 119.756 79.5579 119.806 79.3556C119.865 79.113 119.957 78.887 120.073 78.6786C120.459 77.5864 121.068 76.5832 121.873 75.7409L121.881 75.7327L128.991 68.3566C129.25 67.8085 129.681 67.3752 130.199 67.1041L137.204 59.8401L137.205 59.842C138.199 58.8043 139.448 58.0437 140.828 57.6395ZM131.355 103.176L131.477 103.512C131.622 103.839 131.831 104.136 132.092 104.384C132.438 104.714 132.865 104.946 133.33 105.06L153.288 109.81L147.129 88.826L125.604 83.5834L131.355 103.176ZM152.387 87.2867L158.547 108.271L172.774 93.5168C173.106 93.1697 173.341 92.7414 173.455 92.2752C173.569 91.8097 173.557 91.3225 173.423 90.8625L167.671 71.2683L152.387 87.2867ZM127.015 78.2953L148.422 83.5088L153.894 77.7736L132.512 72.5948L127.015 78.2953ZM142.37 62.8925C141.909 63.0276 141.492 63.2814 141.16 63.6286L141.151 63.6373L136.914 68.0303L158.26 73.1999L163.623 67.5785L143.801 62.8615L143.789 62.8592C143.321 62.7457 142.832 62.7574 142.37 62.8925Z" fill="black"/>
</svg>
