<svg width="782" height="248" viewBox="0 0 782 248" fill="none" xmlns="http://www.w3.org/2000/svg">
<path d="M695.165 223.108H693.098C688.964 223.108 687.086 222.357 685.958 219.168L677.692 197.403C677.504 196.84 677.316 196.277 677.316 195.902C677.316 193.087 681.073 192.712 683.328 192.712C694.413 192.524 699.674 187.271 699.674 182.768C699.674 180.329 697.231 177.326 694.601 173.949L689.528 168.32C681.261 158.939 677.879 150.871 677.879 143.741C677.879 122.539 708.504 111.281 733.117 111.281C740.444 111.281 742.323 112.032 743.638 115.409L752.093 137.174C752.468 137.924 752.468 138.487 752.468 139.05C752.468 141.114 750.402 141.865 747.959 141.865H747.208C735.935 141.865 731.614 145.617 731.614 149.37C731.614 152.559 734.432 156.124 741.571 164.005C750.214 173.386 753.971 181.83 753.971 188.959C753.971 211.1 720.341 223.108 695.165 223.108Z" fill="black"/>
<path d="M675.892 170.805L657.852 188.866C655.266 191.387 652.96 192.422 650.635 191.676C648.846 191.103 637.242 184.23 630.996 172.966C620.144 174.808 609.794 173.855 600.671 170.93C570.796 161.354 552.386 130.229 561.631 101.466C568.522 80.0278 593.662 53.9957 629.082 65.3501C638.027 68.2174 646.161 72.9925 652.161 78.2661C653.637 77.3596 655.419 77.3398 657.566 78.0279L658.46 78.3146L688.547 90.9152C693.083 92.7635 693.589 95.4874 692.9 97.6312L692.613 98.5244C684.883 113.979 677.383 128.719 673.593 140.509C670.147 151.228 669.646 159.541 674.394 164.413C675.896 165.88 677.519 167.583 676.945 169.369C676.83 169.727 676.479 170.205 675.892 170.805ZM627.668 140.961C628.625 136.144 629.875 131.027 631.655 125.489C633.148 120.844 634.877 116.078 636.958 110.833C635.959 106.572 631.933 102.523 626.745 100.86C615.475 97.2469 605.711 106.137 602.783 115.249C599.567 125.253 603.787 136.065 615.415 139.792C618.814 140.882 622.98 141.429 627.668 140.961Z" fill="black"/>
<path d="M494.603 212.819L493.158 194.472C492.913 191.751 494.826 189.406 496.755 188.663L497.456 188.393C498.751 188.096 499.978 187.623 501.03 187.218C511.548 183.169 518.488 175.067 517.348 165.854C514.986 148.263 499.895 102.393 488.147 70.9207C486.768 66.8267 488.601 65.3164 490.705 64.5065C490.88 64.439 520.98 54.2575 524.904 52.9476C527.844 52.2178 530.165 53.5361 531.111 55.987C531.585 57.2125 555.68 127.969 560.289 155.554C565.305 186.803 547.069 205.286 526.383 213.251C517.268 216.761 507.584 218.277 499.18 217.893C496.913 217.76 495.576 215.862 494.968 214.287C494.765 213.761 494.563 213.236 494.603 212.819ZM522.623 17.8307C528.097 32.0111 520.988 48.0204 506.789 53.4877C492.414 59.0224 476.383 51.9228 470.908 37.7423C465.366 23.3868 472.475 7.37748 486.85 1.84273C501.05 -3.62453 517.081 3.47514 522.623 17.8307Z" fill="black"/>
<path d="M435.321 204.891L433.186 204.169C392.79 190.506 381.845 156.099 391.006 129.087C399.624 103.674 426.638 83.0956 467.211 96.8183C511.343 111.745 499.981 151.681 497.993 157.546C495.22 165.721 489.549 171.33 477.844 171.333C468.516 171.348 454.685 168.849 445.311 166.075C442.464 165.112 441.996 163.567 442.007 161.194C441.86 154.607 442.397 141.912 442.638 141.201C443.301 139.246 445.026 138.839 447.52 139.088C457.497 140.086 458.863 140.151 459.707 137.663C460.249 136.064 458.797 129.234 451.323 126.706C442.781 123.817 433.131 128.873 429.395 139.892C425.116 152.509 429.548 169.856 451.792 177.379C453.038 177.801 454.461 178.282 455.767 178.526L456.123 178.646C458.614 179.489 461.097 182.111 460.073 185.132C459.47 186.91 450.745 197.429 446.027 202.569C443.639 204.931 440.482 206.636 435.321 204.891Z" fill="black"/>
<path d="M340.804 187.146H321.828C318.071 187.146 314.689 186.396 312.622 182.831L269.597 101.4C268.658 99.5237 268.282 98.0227 268.282 96.7093C268.282 94.6454 269.409 93.332 271.476 92.3938C275.985 90.3299 300.598 80.198 304.543 80.198C307.361 80.198 309.24 81.5114 310.18 83.3876L331.222 129.732C331.598 130.67 332.162 131.045 332.538 131.045C333.101 131.045 333.477 130.67 334.041 129.544C340.616 114.346 350.95 86.765 352.265 83.5753C353.392 81.1361 355.271 80.0103 357.714 80.0103C359.029 80.0103 360.344 80.198 361.847 80.7609L387.023 88.4536C391.344 89.767 393.035 91.6433 393.035 94.2701C393.035 97.2722 372.368 164.443 349.259 184.332C347.38 185.833 344.186 187.146 340.804 187.146Z" fill="black"/>
<path d="M209.804 191.837H207.737C203.604 191.837 201.725 191.086 200.598 187.897L192.331 166.132C192.143 165.569 191.955 165.006 191.955 164.631C191.955 161.816 195.713 161.441 197.968 161.441C209.053 161.254 214.313 156 214.313 151.497C214.313 149.058 211.871 146.056 209.24 142.678L204.168 137.049C195.901 127.668 192.519 119.6 192.519 112.47C192.519 91.2681 223.144 80.0103 247.756 80.0103C255.083 80.0103 256.962 80.7609 258.277 84.1382L266.732 105.903C267.108 106.654 267.108 107.216 267.108 107.779C267.108 109.843 265.041 110.594 262.599 110.594H261.847C250.574 110.594 246.253 114.346 246.253 118.099C246.253 121.289 249.071 124.854 256.211 132.734C264.853 142.115 268.611 150.559 268.611 157.689C268.611 179.829 234.98 191.837 209.804 191.837Z" fill="black"/>
<path d="M183.945 166.192L168.115 186.212C165.837 189.014 163.667 190.308 161.271 189.835C159.427 189.472 147.107 183.983 139.6 173.515C129.033 176.596 118.643 176.843 109.243 174.99C78.4603 168.922 56.5746 140.128 62.4323 110.491C66.7983 88.4021 88.7603 59.6452 125.257 66.8395C134.473 68.6562 143.105 72.4614 149.675 77.0078C151.035 75.9373 152.803 75.712 155.015 76.148L155.937 76.3297L187.279 85.3767C191.999 86.6896 192.816 89.3369 192.38 91.5459L192.198 92.4662C186.306 108.709 180.56 124.215 178.159 136.364C175.976 147.408 176.439 155.723 181.719 160.015C183.38 161.299 185.19 162.803 184.826 164.644C184.753 165.012 184.46 165.528 183.945 166.192ZM132.594 142.108C132.987 137.213 133.637 131.986 134.765 126.28C135.711 121.494 136.878 116.56 138.338 111.11C136.854 106.993 132.386 103.435 127.041 102.381C115.429 100.092 106.758 110.049 104.902 119.437C102.865 129.745 108.307 139.998 120.288 142.36C123.79 143.05 127.991 143.113 132.594 142.108Z" fill="black"/>
<path d="M57.7698 184.068L20.2129 188.014C18.1575 188.23 16.299 186.727 16.0828 184.674L0.0243542 32.223C-0.211509 29.9839 1.29325 28.1278 3.3486 27.9119L40.9055 23.9665C42.9609 23.7506 44.8194 25.2533 45.0553 27.4925L61.1137 179.944C61.3299 181.996 59.8252 183.853 57.7698 184.068Z" fill="black"/>
<path d="M200.878 34.3816C201.673 33.0965 203.361 32.6982 204.648 33.4917C205.936 34.2858 206.335 35.9729 205.54 37.2587L194.762 54.6828L212.211 65.4458C213.499 66.24 213.898 67.9271 213.103 69.2128C212.308 70.4981 210.62 70.8966 209.333 70.1027L189.551 57.9014C188.265 57.1071 187.866 55.4217 188.66 54.1362L200.878 34.3816ZM222.21 29.3463C223.005 28.0613 224.693 27.6628 225.98 28.4564L245.762 40.6577C247.048 41.4518 247.447 43.1374 246.653 44.4228L234.435 64.1775C233.64 65.4628 231.952 65.8611 230.665 65.0674C229.377 64.2733 228.978 62.5862 229.773 61.3004L240.549 43.8749L223.102 33.1132C221.814 32.3191 221.415 30.632 222.21 29.3463Z" fill="black"/>
<path d="M93.0695 219.74L87.7492 218.43C86.3381 218.083 84.8454 218.31 83.6017 219.06C82.3584 219.811 81.4653 221.025 81.1176 222.434C80.7699 223.843 80.996 225.331 81.7474 226.573C82.4993 227.815 83.7154 228.709 85.1265 229.056C86.5375 229.404 88.0286 229.176 89.2722 228.426C90.5159 227.675 91.4103 226.462 91.7581 225.053L93.0695 219.74ZM123.682 232.911C124.029 231.502 123.802 230.013 123.05 228.771C122.298 227.529 121.084 226.635 119.673 226.288L114.352 224.979L113.041 230.292C112.693 231.701 112.921 233.19 113.673 234.432C114.425 235.674 115.639 236.567 117.05 236.914C118.461 237.262 119.952 237.034 121.196 236.283C122.439 235.533 123.334 234.32 123.682 232.911ZM99.7011 215.736L110.343 218.356L112.967 207.728L102.324 205.108L99.7011 215.736ZM99.6267 193.172C99.9745 191.763 99.7473 190.272 98.9955 189.03C98.2436 187.789 97.0284 186.897 95.6177 186.55C94.2066 186.202 92.7144 186.427 91.4706 187.178C90.2269 187.929 89.3339 189.144 88.9861 190.553C88.6385 191.962 88.8644 193.451 89.6159 194.693C90.3678 195.935 91.5839 196.829 92.995 197.176L98.3153 198.485L99.6267 193.172ZM131.55 201.03C131.898 199.621 131.671 198.13 130.919 196.888C130.167 195.647 128.952 194.755 127.541 194.408C126.13 194.06 124.64 194.286 123.396 195.037C122.152 195.787 121.257 197.002 120.91 198.411L119.598 203.724L124.918 205.034C126.33 205.381 127.82 205.154 129.064 204.403C130.308 203.652 131.202 202.439 131.55 201.03ZM136.87 202.34C136.175 205.158 134.387 207.586 131.9 209.088C129.412 210.589 126.429 211.042 123.607 210.347L118.287 209.037L115.664 219.665L120.984 220.975C123.806 221.67 126.237 223.455 127.741 225.939C129.245 228.423 129.697 231.402 129.002 234.22C128.306 237.039 126.519 239.466 124.031 240.968C121.544 242.47 118.561 242.922 115.739 242.227C112.916 241.533 110.486 239.748 108.982 237.264C107.478 234.779 107.025 231.8 107.721 228.982L109.032 223.669L98.3897 221.049L97.0784 226.362C96.3828 229.181 94.5954 231.608 92.108 233.11C89.6206 234.612 86.6373 235.064 83.8152 234.369C80.993 233.675 78.5621 231.89 77.0583 229.406C75.5546 226.922 75.0999 223.942 75.7955 221.124C76.4911 218.305 78.2803 215.878 80.7678 214.376C83.2552 212.875 86.2384 212.422 89.0606 213.117L94.3808 214.427L97.004 203.799L91.6837 202.489C88.8616 201.794 86.4306 200.009 84.9268 197.525C83.4232 195.041 82.9685 192.061 83.664 189.243C84.3596 186.425 86.1488 183.998 88.6363 182.496C91.1238 180.994 94.1073 180.54 96.9295 181.235C99.7516 181.929 102.182 183.716 103.686 186.2C105.189 188.684 105.643 191.664 104.947 194.482L103.636 199.795L114.278 202.415L115.589 197.102C116.285 194.283 118.072 191.856 120.56 190.354C123.047 188.852 126.031 188.398 128.853 189.093C131.675 189.787 134.106 191.574 135.609 194.058C137.113 196.542 137.566 199.522 136.87 202.34Z" fill="black"/>
<path d="M333.365 186.216L335.954 196.484C335.971 196.553 335.987 196.623 335.999 196.693C336.153 197.601 336.498 198.466 337.012 199.229C337.527 199.993 338.198 200.639 338.982 201.124C339.871 201.673 340.369 202.679 340.267 203.717C340.164 204.756 339.479 205.646 338.5 206.012C334.591 207.471 331.204 209.332 329.139 212.19C327.176 214.908 326.087 218.989 327.769 225.659C328.532 228.682 330.431 231.295 333.071 232.96C333.957 233.519 334.445 234.536 334.33 235.576C334.081 237.811 334.522 240.052 335.563 242.015C335.568 242.013 335.574 242.01 335.579 242.007C336.802 241.394 338.889 239.996 341.731 236.846C342.263 236.258 343.024 235.928 343.817 235.942C349.836 236.05 355.776 234.557 361.026 231.615C361.717 231.228 362.543 231.158 363.29 231.425C367.288 232.855 369.79 233.099 371.158 233.061C371.165 233.06 371.171 233.06 371.178 233.06C371.164 230.839 370.485 228.657 369.207 226.806C368.611 225.944 368.561 224.818 369.077 223.906C370.623 221.172 371.05 217.945 370.266 214.904L370.262 214.889C368.596 208.28 365.715 205.221 362.691 203.753C359.505 202.207 355.623 202.15 351.462 202.664C350.431 202.791 349.416 202.327 348.841 201.463C348.267 200.599 348.232 199.484 348.75 198.585C349.205 197.796 349.488 196.919 349.582 196.014C349.675 195.108 349.577 194.193 349.293 193.329C349.273 193.268 349.254 193.206 349.239 193.144L346.65 182.875C346.28 181.409 347.171 179.921 348.638 179.552C350.105 179.184 351.594 180.073 351.963 181.539L353.132 186.173C355.191 185.307 357.09 184.887 358.874 184.857C361.589 184.812 363.752 185.668 365.51 186.718C366.37 187.231 367.142 187.796 367.815 188.307C368.531 188.851 369.062 189.275 369.634 189.682C370.763 190.485 371.396 190.715 371.916 190.714C373.429 190.712 374.657 191.934 374.66 193.445C374.663 194.956 373.437 196.184 371.924 196.186C369.62 196.19 367.8 195.096 366.455 194.14C365.791 193.668 365.077 193.104 364.496 192.663C363.873 192.189 363.293 191.771 362.698 191.416C361.546 190.729 360.385 190.306 358.967 190.329C357.841 190.348 356.387 190.656 354.491 191.565L354.541 191.761C355.03 193.316 355.201 194.954 355.033 196.576C355.022 196.688 355.005 196.8 354.99 196.911C358.326 196.836 361.839 197.256 365.086 198.833C369.601 201.024 373.147 205.212 375.188 212.133L375.576 213.553C376.57 217.423 376.214 221.499 374.595 225.119C376.373 228.343 377.037 232.081 376.451 235.747C376.323 236.55 375.843 237.255 375.143 237.67L373.745 235.317C375.142 237.67 375.14 237.672 375.138 237.673L375.132 237.677C375.129 237.678 375.125 237.679 375.122 237.681C375.115 237.685 375.108 237.69 375.101 237.694C375.087 237.702 375.072 237.711 375.056 237.719C375.025 237.737 374.99 237.756 374.952 237.775C374.876 237.814 374.787 237.856 374.684 237.9C374.478 237.988 374.218 238.082 373.901 238.171C373.267 238.349 372.415 238.5 371.312 238.531C369.307 238.587 366.485 238.248 362.615 236.978C357.158 239.814 351.112 241.334 344.961 241.417C342.154 244.367 339.829 246 338.036 246.899C337.049 247.393 336.227 247.663 335.584 247.806C335.264 247.877 334.991 247.917 334.768 247.937C334.656 247.947 334.557 247.952 334.471 247.954C334.428 247.955 334.389 247.955 334.353 247.955C334.335 247.954 334.317 247.954 334.301 247.954C334.293 247.954 334.285 247.952 334.277 247.952C334.273 247.952 334.269 247.953 334.265 247.953L334.259 247.952C334.257 247.951 334.258 247.896 334.342 245.865L334.255 247.952C333.441 247.918 332.685 247.523 332.191 246.876C329.937 243.925 328.749 240.32 328.786 236.64C325.665 234.235 323.427 230.843 322.456 226.995L322.121 225.552C320.627 218.452 321.753 213.06 324.694 208.99C326.803 206.07 329.695 204.054 332.671 202.569C332.603 202.474 332.533 202.382 332.467 202.285C331.55 200.924 330.926 199.387 330.628 197.774L328.051 187.552C327.681 186.086 328.572 184.598 330.039 184.229C331.507 183.861 332.995 184.75 333.365 186.216Z" fill="black"/>
<path d="M82.9802 62.152V51.2077C82.9802 49.6965 84.2077 48.4707 85.7209 48.4707C87.2341 48.4707 88.4616 49.6965 88.4616 51.2077V62.152C88.4616 63.6632 87.2341 64.889 85.7209 64.889C84.2077 64.889 82.9802 63.6632 82.9802 62.152ZM72.1665 44.4568C73.2365 43.3882 74.9705 43.3882 76.0405 44.4568C77.1105 45.5254 77.1105 47.2571 76.0405 48.3257L68.2867 56.0691C67.2167 57.1377 65.4826 57.1377 64.4126 56.0691C63.3426 55.0005 63.3426 53.2688 64.4126 52.2002L72.1665 44.4568ZM95.4013 44.4568C96.4713 43.3882 98.2053 43.3882 99.2753 44.4568L107.029 52.2002C108.099 53.2688 108.099 55.0005 107.029 56.0691C105.959 57.1377 104.225 57.1377 103.155 56.0691L95.4013 48.3257C94.3313 47.2571 94.3313 45.5254 95.4013 44.4568ZM69.2805 32.0525C70.7937 32.0525 72.0212 33.2783 72.0212 34.7895C72.0212 36.3007 70.7937 37.5265 69.2805 37.5265H58.3215C56.8083 37.5265 55.5808 36.3007 55.5808 34.7895C55.5808 33.2783 56.8083 32.0525 58.3215 32.0525H69.2805ZM113.12 32.0525C114.633 32.0525 115.861 33.2783 115.861 34.7895C115.861 36.3007 114.633 37.5265 113.12 37.5265H102.161C100.648 37.5265 99.4206 36.3007 99.4206 34.7895C99.4206 33.2783 100.648 32.0525 102.161 32.0525H113.12ZM64.4126 13.5099C65.4826 12.4413 67.2167 12.4413 68.2867 13.5099L76.0405 21.2533C77.1105 22.3219 77.1105 24.0536 76.0405 25.1221C74.9705 26.1907 73.2365 26.1907 72.1665 25.1221L64.4126 17.3787C63.3426 16.3101 63.3426 14.5784 64.4126 13.5099ZM103.155 13.5099C104.225 12.4413 105.959 12.4413 107.029 13.5099C108.099 14.5784 108.099 16.3101 107.029 17.3787L99.2753 25.1221C98.2053 26.1907 96.4713 26.1907 95.4013 25.1221C94.3313 24.0536 94.3313 22.3219 95.4013 21.2533L103.155 13.5099ZM82.9802 18.3712V7.42697C82.9802 5.91578 84.2077 4.68995 85.7209 4.68995C87.2341 4.68995 88.4616 5.91578 88.4616 7.42697V18.3712C88.4616 19.8824 87.2341 21.1082 85.7209 21.1082C84.2077 21.1082 82.9802 19.8824 82.9802 18.3712Z" fill="black"/>
<path d="M778.103 91.3904C778.103 81.8701 770.374 74.1533 760.841 74.1533C751.308 74.1535 743.581 81.8702 743.581 91.3904C743.581 100.911 751.308 108.629 760.841 108.629C770.374 108.629 778.103 100.911 778.103 91.3904ZM758.924 99.0517V91.3904C758.924 90.3329 759.782 89.4762 760.841 89.476C761.9 89.476 762.76 90.3327 762.76 91.3904V99.0517C762.76 100.11 761.9 100.968 760.841 100.968C759.782 100.968 758.924 100.109 758.924 99.0517ZM760.86 81.8147C761.919 81.8147 762.779 82.6713 762.779 83.729C762.779 84.7869 761.919 85.6453 760.86 85.6453H760.841C759.782 85.6451 758.924 84.7867 758.924 83.729C758.924 82.6714 759.782 81.8149 760.841 81.8147H760.86ZM781.939 91.3904C781.939 103.027 772.493 112.46 760.841 112.46C749.189 112.46 739.743 103.026 739.743 91.3904C739.743 79.7545 749.189 70.3209 760.841 70.3207C772.493 70.3207 781.939 79.7544 781.939 91.3904Z" fill="black"/>
<path d="M586.953 174.846C587.738 174.062 588.919 173.83 589.944 174.256L636.442 193.6C637.494 194.038 638.164 195.082 638.126 196.219C638.087 197.357 637.347 198.351 636.268 198.718L620.191 204.169L634.667 218.627C635.737 219.695 635.737 221.427 634.667 222.496C633.597 223.564 631.863 223.564 630.793 222.496L616.315 208.039L610.857 224.095C610.49 225.173 609.494 225.912 608.355 225.95C607.216 225.989 606.171 225.319 605.733 224.269L586.362 177.833C585.935 176.81 586.168 175.63 586.953 174.846ZM607.999 215.474L612.544 202.115L612.665 201.821C612.98 201.157 613.553 200.642 614.259 200.403L627.635 195.864L593.977 181.86L607.999 215.474Z" fill="black"/>
<path d="M419.828 21.6395C421.209 21.2355 422.671 21.2028 424.069 21.5397L424.07 21.5374L445.558 26.6536L445.571 26.6558L446.091 26.7999C447.03 27.0941 447.905 27.5575 448.68 28.1605C448.888 28.2732 449.086 28.4127 449.266 28.5835C449.416 28.7266 449.543 28.8851 449.654 29.0507C450.517 29.9793 451.155 31.0954 451.514 32.315L457.682 53.3269C458.086 54.7087 458.12 56.1724 457.779 57.5709C457.437 58.9694 456.734 60.2535 455.739 61.2947L455.729 61.3035L440.415 77.1855C439.723 77.9092 438.907 78.4943 438.009 78.9221C437.695 79.2353 437.301 79.4775 436.845 79.611C436.389 79.7443 435.926 79.7534 435.493 79.6588C434.506 79.7823 433.502 79.7322 432.529 79.496L432.529 79.4942L411.052 74.3826L411.041 74.3798C409.641 74.0399 408.354 73.3382 407.311 72.3451C406.268 71.3519 405.503 70.1021 405.096 68.7212L398.928 47.7093C398.572 46.4897 398.507 45.2065 398.73 43.9604C398.734 43.7606 398.756 43.5579 398.806 43.3556C398.865 43.113 398.957 42.8871 399.073 42.6786C399.459 41.5865 400.068 40.5833 400.873 39.7409L400.881 39.7327L407.991 32.3567C408.25 31.8085 408.681 31.3753 409.199 31.1041L416.204 23.8402L416.205 23.842C417.199 22.8044 418.448 22.0438 419.828 21.6395ZM410.355 67.1759L410.477 67.5119C410.622 67.839 410.831 68.1357 411.092 68.3842C411.438 68.7139 411.865 68.9462 412.33 69.06L432.288 73.8105L426.129 52.826L404.604 47.5834L410.355 67.1759ZM431.387 51.2867L437.547 72.2711L451.774 57.5169C452.106 57.1697 452.341 56.7414 452.455 56.2752C452.569 55.8097 452.557 55.3226 452.423 54.8626L446.671 35.2683L431.387 51.2867ZM406.015 42.2953L427.422 47.5088L432.894 41.7737L411.512 36.5948L406.015 42.2953ZM421.37 26.8925C420.909 27.0276 420.492 27.2814 420.16 27.6286L420.151 27.6373L415.914 32.0303L437.26 37.1999L442.622 31.5785L422.801 26.8615L422.789 26.8592C422.321 26.7458 421.832 26.7574 421.37 26.8925Z" fill="black"/>
<path d="M549.879 65.7476C550.105 67.9146 551.185 69.9042 552.88 71.2767C554.574 72.649 556.744 73.2921 558.914 73.0664C561.084 72.8405 563.076 71.7641 564.45 70.072L586.884 42.4536C589.174 39.6339 590.248 36.0206 589.871 32.4095C589.494 28.7983 587.697 25.4839 584.874 23.1966C582.05 20.9093 578.432 19.8356 574.816 20.2119C571.2 20.5883 567.881 22.3846 565.591 25.2041L543.157 52.8226C542.204 53.9962 540.477 54.1759 539.302 53.2239C538.128 52.2721 537.948 50.5494 538.9 49.3759L561.334 21.7575C564.54 17.8105 569.186 15.2962 574.248 14.7693C579.309 14.2425 584.373 15.7458 588.325 18.9474C592.278 22.1491 594.795 26.7872 595.323 31.8419C595.851 36.8966 594.345 41.9535 591.139 45.9004L568.705 73.5189C566.415 76.3381 563.097 78.1345 559.482 78.5109C555.867 78.8871 552.251 77.8125 549.428 75.5259C546.605 73.239 544.806 69.9256 544.429 66.315C544.053 62.7048 545.129 59.0935 547.418 56.2745L547.418 56.2726L569.879 28.6514L569.881 28.6531C571.254 26.9624 573.243 25.8851 575.412 25.6593C577.581 25.4335 579.75 26.0772 581.444 27.4492C583.138 28.8212 584.216 30.8086 584.442 32.9747C584.668 35.1408 584.023 37.3075 582.65 38.9989L582.65 39.0008L561.921 64.4882C560.967 65.6607 559.242 65.8396 558.068 64.8875C556.893 63.9347 556.714 62.2104 557.668 61.0374L578.395 35.5502L578.397 35.5519C578.854 34.9878 579.067 34.2642 578.992 33.5421C578.917 32.8196 578.557 32.156 577.992 31.6984C577.428 31.2407 576.703 31.0266 575.98 31.1019C575.256 31.1773 574.592 31.536 574.134 32.1001L574.134 32.102L551.672 59.7234C550.298 61.4149 549.653 63.5818 549.879 65.7476Z" fill="black"/>
</svg>
